G04 #@! TF.FileFunction,Legend,Top*
%FSLAX46Y46*%
G04 Gerber Fmt 4.6, Leading zero omitted, Abs format (unit mm)*
G04 Created by KiCad (PCBNEW 4.0.7) date Tue May  5 03:45:28 2020*
%MOMM*%
%LPD*%
G01*
G04 APERTURE LIST*
%ADD10C,0.100000*%
%ADD11C,0.300000*%
%ADD12C,0.120000*%
%ADD13C,0.150000*%
G04 APERTURE END LIST*
D10*
D11*
X101414285Y-120178571D02*
X101699999Y-121178571D01*
X101985713Y-120464286D01*
X102271428Y-121178571D01*
X102557142Y-120178571D01*
X102985714Y-120178571D02*
X103271428Y-121178571D01*
X103557142Y-120464286D01*
X103842857Y-121178571D01*
X104128571Y-120178571D01*
X104557143Y-120178571D02*
X104842857Y-121178571D01*
X105128571Y-120464286D01*
X105414286Y-121178571D01*
X105700000Y-120178571D01*
X106271429Y-121035714D02*
X106342857Y-121107143D01*
X106271429Y-121178571D01*
X106200000Y-121107143D01*
X106271429Y-121035714D01*
X106271429Y-121178571D01*
X106985715Y-120178571D02*
X106985715Y-121178571D01*
X106985715Y-120321429D02*
X107057143Y-120250000D01*
X107200001Y-120178571D01*
X107414286Y-120178571D01*
X107557143Y-120250000D01*
X107628572Y-120392857D01*
X107628572Y-121178571D01*
X108914286Y-121107143D02*
X108771429Y-121178571D01*
X108485715Y-121178571D01*
X108342858Y-121107143D01*
X108271429Y-120964286D01*
X108271429Y-120392857D01*
X108342858Y-120250000D01*
X108485715Y-120178571D01*
X108771429Y-120178571D01*
X108914286Y-120250000D01*
X108985715Y-120392857D01*
X108985715Y-120535714D01*
X108271429Y-120678571D01*
X109414286Y-120178571D02*
X109985715Y-120178571D01*
X109628572Y-119678571D02*
X109628572Y-120964286D01*
X109700000Y-121107143D01*
X109842858Y-121178571D01*
X109985715Y-121178571D01*
X110485715Y-120178571D02*
X110485715Y-121678571D01*
X110485715Y-120250000D02*
X110628572Y-120178571D01*
X110914286Y-120178571D01*
X111057143Y-120250000D01*
X111128572Y-120321429D01*
X111200001Y-120464286D01*
X111200001Y-120892857D01*
X111128572Y-121035714D01*
X111057143Y-121107143D01*
X110914286Y-121178571D01*
X110628572Y-121178571D01*
X110485715Y-121107143D01*
X111842858Y-121178571D02*
X111842858Y-120178571D01*
X111842858Y-119678571D02*
X111771429Y-119750000D01*
X111842858Y-119821429D01*
X111914286Y-119750000D01*
X111842858Y-119678571D01*
X111842858Y-119821429D01*
X112557144Y-120178571D02*
X112557144Y-121678571D01*
X112557144Y-120250000D02*
X112700001Y-120178571D01*
X112985715Y-120178571D01*
X113128572Y-120250000D01*
X113200001Y-120321429D01*
X113271430Y-120464286D01*
X113271430Y-120892857D01*
X113200001Y-121035714D01*
X113128572Y-121107143D01*
X112985715Y-121178571D01*
X112700001Y-121178571D01*
X112557144Y-121107143D01*
X114485715Y-121107143D02*
X114342858Y-121178571D01*
X114057144Y-121178571D01*
X113914287Y-121107143D01*
X113842858Y-120964286D01*
X113842858Y-120392857D01*
X113914287Y-120250000D01*
X114057144Y-120178571D01*
X114342858Y-120178571D01*
X114485715Y-120250000D01*
X114557144Y-120392857D01*
X114557144Y-120535714D01*
X113842858Y-120678571D01*
X115200001Y-121035714D02*
X115271429Y-121107143D01*
X115200001Y-121178571D01*
X115128572Y-121107143D01*
X115200001Y-121035714D01*
X115200001Y-121178571D01*
X116557144Y-121107143D02*
X116414287Y-121178571D01*
X116128573Y-121178571D01*
X115985715Y-121107143D01*
X115914287Y-121035714D01*
X115842858Y-120892857D01*
X115842858Y-120464286D01*
X115914287Y-120321429D01*
X115985715Y-120250000D01*
X116128573Y-120178571D01*
X116414287Y-120178571D01*
X116557144Y-120250000D01*
X117842858Y-121178571D02*
X117842858Y-120392857D01*
X117771429Y-120250000D01*
X117628572Y-120178571D01*
X117342858Y-120178571D01*
X117200001Y-120250000D01*
X117842858Y-121107143D02*
X117700001Y-121178571D01*
X117342858Y-121178571D01*
X117200001Y-121107143D01*
X117128572Y-120964286D01*
X117128572Y-120821429D01*
X117200001Y-120678571D01*
X117342858Y-120607143D01*
X117700001Y-120607143D01*
X117842858Y-120535714D01*
X110292857Y-88878571D02*
X110292857Y-87378571D01*
X110292857Y-88807143D02*
X110150000Y-88878571D01*
X109864286Y-88878571D01*
X109721428Y-88807143D01*
X109650000Y-88735714D01*
X109578571Y-88592857D01*
X109578571Y-88164286D01*
X109650000Y-88021429D01*
X109721428Y-87950000D01*
X109864286Y-87878571D01*
X110150000Y-87878571D01*
X110292857Y-87950000D01*
X111650000Y-87878571D02*
X111650000Y-88878571D01*
X111007143Y-87878571D02*
X111007143Y-88664286D01*
X111078571Y-88807143D01*
X111221429Y-88878571D01*
X111435714Y-88878571D01*
X111578571Y-88807143D01*
X111650000Y-88735714D01*
X113007143Y-88878571D02*
X113007143Y-88092857D01*
X112935714Y-87950000D01*
X112792857Y-87878571D01*
X112507143Y-87878571D01*
X112364286Y-87950000D01*
X113007143Y-88807143D02*
X112864286Y-88878571D01*
X112507143Y-88878571D01*
X112364286Y-88807143D01*
X112292857Y-88664286D01*
X112292857Y-88521429D01*
X112364286Y-88378571D01*
X112507143Y-88307143D01*
X112864286Y-88307143D01*
X113007143Y-88235714D01*
X113935715Y-88878571D02*
X113792857Y-88807143D01*
X113721429Y-88664286D01*
X113721429Y-87378571D01*
X116292857Y-88807143D02*
X116150000Y-88878571D01*
X115864286Y-88878571D01*
X115721428Y-88807143D01*
X115650000Y-88735714D01*
X115578571Y-88592857D01*
X115578571Y-88164286D01*
X115650000Y-88021429D01*
X115721428Y-87950000D01*
X115864286Y-87878571D01*
X116150000Y-87878571D01*
X116292857Y-87950000D01*
X117150000Y-88878571D02*
X117007142Y-88807143D01*
X116935714Y-88735714D01*
X116864285Y-88592857D01*
X116864285Y-88164286D01*
X116935714Y-88021429D01*
X117007142Y-87950000D01*
X117150000Y-87878571D01*
X117364285Y-87878571D01*
X117507142Y-87950000D01*
X117578571Y-88021429D01*
X117650000Y-88164286D01*
X117650000Y-88592857D01*
X117578571Y-88735714D01*
X117507142Y-88807143D01*
X117364285Y-88878571D01*
X117150000Y-88878571D01*
X118292857Y-88878571D02*
X118292857Y-87878571D01*
X118292857Y-88021429D02*
X118364285Y-87950000D01*
X118507143Y-87878571D01*
X118721428Y-87878571D01*
X118864285Y-87950000D01*
X118935714Y-88092857D01*
X118935714Y-88878571D01*
X118935714Y-88092857D02*
X119007143Y-87950000D01*
X119150000Y-87878571D01*
X119364285Y-87878571D01*
X119507143Y-87950000D01*
X119578571Y-88092857D01*
X119578571Y-88878571D01*
X120292857Y-87878571D02*
X120292857Y-89378571D01*
X120292857Y-87950000D02*
X120435714Y-87878571D01*
X120721428Y-87878571D01*
X120864285Y-87950000D01*
X120935714Y-88021429D01*
X121007143Y-88164286D01*
X121007143Y-88592857D01*
X120935714Y-88735714D01*
X120864285Y-88807143D01*
X120721428Y-88878571D01*
X120435714Y-88878571D01*
X120292857Y-88807143D01*
X122292857Y-87878571D02*
X122292857Y-88878571D01*
X121650000Y-87878571D02*
X121650000Y-88664286D01*
X121721428Y-88807143D01*
X121864286Y-88878571D01*
X122078571Y-88878571D01*
X122221428Y-88807143D01*
X122292857Y-88735714D01*
X122792857Y-87878571D02*
X123364286Y-87878571D01*
X123007143Y-87378571D02*
X123007143Y-88664286D01*
X123078571Y-88807143D01*
X123221429Y-88878571D01*
X123364286Y-88878571D01*
X124435714Y-88807143D02*
X124292857Y-88878571D01*
X124007143Y-88878571D01*
X123864286Y-88807143D01*
X123792857Y-88664286D01*
X123792857Y-88092857D01*
X123864286Y-87950000D01*
X124007143Y-87878571D01*
X124292857Y-87878571D01*
X124435714Y-87950000D01*
X124507143Y-88092857D01*
X124507143Y-88235714D01*
X123792857Y-88378571D01*
X125150000Y-88878571D02*
X125150000Y-87878571D01*
X125150000Y-88164286D02*
X125221428Y-88021429D01*
X125292857Y-87950000D01*
X125435714Y-87878571D01*
X125578571Y-87878571D01*
X127221428Y-87378571D02*
X127221428Y-88592857D01*
X127292856Y-88735714D01*
X127364285Y-88807143D01*
X127507142Y-88878571D01*
X127792856Y-88878571D01*
X127935714Y-88807143D01*
X128007142Y-88735714D01*
X128078571Y-88592857D01*
X128078571Y-87378571D01*
X128721428Y-88807143D02*
X128935714Y-88878571D01*
X129292857Y-88878571D01*
X129435714Y-88807143D01*
X129507143Y-88735714D01*
X129578571Y-88592857D01*
X129578571Y-88450000D01*
X129507143Y-88307143D01*
X129435714Y-88235714D01*
X129292857Y-88164286D01*
X129007143Y-88092857D01*
X128864285Y-88021429D01*
X128792857Y-87950000D01*
X128721428Y-87807143D01*
X128721428Y-87664286D01*
X128792857Y-87521429D01*
X128864285Y-87450000D01*
X129007143Y-87378571D01*
X129364285Y-87378571D01*
X129578571Y-87450000D01*
X130721428Y-88092857D02*
X130935714Y-88164286D01*
X131007142Y-88235714D01*
X131078571Y-88378571D01*
X131078571Y-88592857D01*
X131007142Y-88735714D01*
X130935714Y-88807143D01*
X130792856Y-88878571D01*
X130221428Y-88878571D01*
X130221428Y-87378571D01*
X130721428Y-87378571D01*
X130864285Y-87450000D01*
X130935714Y-87521429D01*
X131007142Y-87664286D01*
X131007142Y-87807143D01*
X130935714Y-87950000D01*
X130864285Y-88021429D01*
X130721428Y-88092857D01*
X130221428Y-88092857D01*
X132792856Y-88807143D02*
X132935713Y-88878571D01*
X133221428Y-88878571D01*
X133364285Y-88807143D01*
X133435713Y-88664286D01*
X133435713Y-88592857D01*
X133364285Y-88450000D01*
X133221428Y-88378571D01*
X133007142Y-88378571D01*
X132864285Y-88307143D01*
X132792856Y-88164286D01*
X132792856Y-88092857D01*
X132864285Y-87950000D01*
X133007142Y-87878571D01*
X133221428Y-87878571D01*
X133364285Y-87950000D01*
X133935714Y-87878571D02*
X134221428Y-88878571D01*
X134507142Y-88164286D01*
X134792857Y-88878571D01*
X135078571Y-87878571D01*
X135650000Y-88878571D02*
X135650000Y-87878571D01*
X135650000Y-87378571D02*
X135578571Y-87450000D01*
X135650000Y-87521429D01*
X135721428Y-87450000D01*
X135650000Y-87378571D01*
X135650000Y-87521429D01*
X136150000Y-87878571D02*
X136721429Y-87878571D01*
X136364286Y-87378571D02*
X136364286Y-88664286D01*
X136435714Y-88807143D01*
X136578572Y-88878571D01*
X136721429Y-88878571D01*
X137864286Y-88807143D02*
X137721429Y-88878571D01*
X137435715Y-88878571D01*
X137292857Y-88807143D01*
X137221429Y-88735714D01*
X137150000Y-88592857D01*
X137150000Y-88164286D01*
X137221429Y-88021429D01*
X137292857Y-87950000D01*
X137435715Y-87878571D01*
X137721429Y-87878571D01*
X137864286Y-87950000D01*
X138507143Y-88878571D02*
X138507143Y-87378571D01*
X139150000Y-88878571D02*
X139150000Y-88092857D01*
X139078571Y-87950000D01*
X138935714Y-87878571D01*
X138721429Y-87878571D01*
X138578571Y-87950000D01*
X138507143Y-88021429D01*
D12*
X145050000Y-117970000D02*
X153690000Y-117970000D01*
X136670000Y-117970000D02*
X141750000Y-117970000D01*
X145050000Y-105770000D02*
X153690000Y-105770000D01*
X136670000Y-105770000D02*
X141750000Y-105770000D01*
X153690000Y-105770000D02*
X153690000Y-117970000D01*
X136670000Y-117970000D02*
X136670000Y-105770000D01*
X117640000Y-113150000D02*
X115310000Y-113150000D01*
X117640000Y-98160000D02*
X115520000Y-98160000D01*
X117640000Y-113150000D02*
X117640000Y-98160000D01*
X103550000Y-113150000D02*
X103550000Y-98160000D01*
X112350000Y-113150000D02*
X103550000Y-113150000D01*
X112150000Y-98160000D02*
X103550000Y-98160000D01*
X145050000Y-101970000D02*
X153690000Y-101970000D01*
X136670000Y-101970000D02*
X141750000Y-101970000D01*
X145050000Y-89770000D02*
X153690000Y-89770000D01*
X136670000Y-89770000D02*
X141750000Y-89770000D01*
X153690000Y-89770000D02*
X153690000Y-101970000D01*
X136670000Y-101970000D02*
X136670000Y-89770000D01*
D13*
X134400000Y-94000000D02*
X121200000Y-94000000D01*
X134400000Y-117000000D02*
X121200000Y-117000000D01*
X121200000Y-94000000D02*
X121200000Y-117000000D01*
X134400000Y-94000000D02*
X134400000Y-117000000D01*
X149202381Y-112203333D02*
X149916667Y-112203333D01*
X150059524Y-112250953D01*
X150154762Y-112346191D01*
X150202381Y-112489048D01*
X150202381Y-112584286D01*
X150202381Y-111203333D02*
X150202381Y-111774762D01*
X150202381Y-111489048D02*
X149202381Y-111489048D01*
X149345238Y-111584286D01*
X149440476Y-111679524D01*
X149488095Y-111774762D01*
X118302381Y-102433333D02*
X119016667Y-102433333D01*
X119159524Y-102480953D01*
X119254762Y-102576191D01*
X119302381Y-102719048D01*
X119302381Y-102814286D01*
X118397619Y-102004762D02*
X118350000Y-101957143D01*
X118302381Y-101861905D01*
X118302381Y-101623809D01*
X118350000Y-101528571D01*
X118397619Y-101480952D01*
X118492857Y-101433333D01*
X118588095Y-101433333D01*
X118730952Y-101480952D01*
X119302381Y-102052381D01*
X119302381Y-101433333D01*
X149202381Y-96203333D02*
X149916667Y-96203333D01*
X150059524Y-96250953D01*
X150154762Y-96346191D01*
X150202381Y-96489048D01*
X150202381Y-96584286D01*
X149202381Y-95822381D02*
X149202381Y-95203333D01*
X149583333Y-95536667D01*
X149583333Y-95393809D01*
X149630952Y-95298571D01*
X149678571Y-95250952D01*
X149773810Y-95203333D01*
X150011905Y-95203333D01*
X150107143Y-95250952D01*
X150154762Y-95298571D01*
X150202381Y-95393809D01*
X150202381Y-95679524D01*
X150154762Y-95774762D01*
X150107143Y-95822381D01*
X135824762Y-106833333D02*
X135872381Y-106690476D01*
X135872381Y-106452380D01*
X135824762Y-106357142D01*
X135777143Y-106309523D01*
X135681905Y-106261904D01*
X135586667Y-106261904D01*
X135491429Y-106309523D01*
X135443810Y-106357142D01*
X135396190Y-106452380D01*
X135348571Y-106642857D01*
X135300952Y-106738095D01*
X135253333Y-106785714D01*
X135158095Y-106833333D01*
X135062857Y-106833333D01*
X134967619Y-106785714D01*
X134920000Y-106738095D01*
X134872381Y-106642857D01*
X134872381Y-106404761D01*
X134920000Y-106261904D01*
X134872381Y-105928571D02*
X135872381Y-105690476D01*
X135158095Y-105499999D01*
X135872381Y-105309523D01*
X134872381Y-105071428D01*
X135872381Y-104166666D02*
X135872381Y-104738095D01*
X135872381Y-104452381D02*
X134872381Y-104452381D01*
X135015238Y-104547619D01*
X135110476Y-104642857D01*
X135158095Y-104738095D01*
M02*
