M48
;DRILL file {KiCad 4.0.7} date Tue May  5 03:42:36 2020
;FORMAT={-:-/ absolute / inch / decimal}
FMAT,2
INCH,TZ
T1C0.032
T2C0.035
T3C0.039
T4C0.091
%
G90
G05
M72
T1
X5.4606Y-3.7244
X5.4606Y-3.8244
X5.4606Y-4.3543
X5.4606Y-4.4543
X5.5394Y-3.7244
X5.5394Y-3.8244
X5.5394Y-4.3543
X5.5394Y-4.4543
T3
X4.5866Y-4.0197
X4.5866Y-4.1197
X4.5866Y-4.1996
X4.5866Y-4.2996
T4
X4.4815Y-3.8795
X4.4815Y-4.4197
X5.6457Y-3.5382
X5.6457Y-4.0106
X5.6457Y-4.1681
X5.6457Y-4.6406
T2
X4.8465Y-3.8445G85X4.8465Y-3.8957
G05
X4.8465Y-4.0335G85X4.8465Y-4.0846
G05
X4.8465Y-4.2224G85X4.8465Y-4.2736
G05
X4.8465Y-4.4114G85X4.8465Y-4.4626
G05
X5.0315Y-3.8445G85X5.0315Y-3.8957
G05
X5.0315Y-4.0335G85X5.0315Y-4.0846
G05
X5.0315Y-4.2224G85X5.0315Y-4.2736
G05
X5.0315Y-4.4114G85X5.0315Y-4.4626
G05
X5.2165Y-3.8445G85X5.2165Y-3.8957
G05
X5.2165Y-4.0335G85X5.2165Y-4.0846
G05
X5.2165Y-4.2224G85X5.2165Y-4.2736
G05
X5.2165Y-4.4114G85X5.2165Y-4.4626
G05
T0
M30
