G04 #@! TF.FileFunction,Copper,L1,Top,Signal*
%FSLAX46Y46*%
G04 Gerber Fmt 4.6, Leading zero omitted, Abs format (unit mm)*
G04 Created by KiCad (PCBNEW 4.0.7) date Tue May  5 03:45:28 2020*
%MOMM*%
%LPD*%
G01*
G04 APERTURE LIST*
%ADD10C,0.100000*%
%ADD11C,1.520000*%
%ADD12C,2.700000*%
%ADD13C,1.500000*%
%ADD14C,3.000000*%
%ADD15R,2.000000X3.000000*%
%ADD16C,0.250000*%
G04 APERTURE END LIST*
D10*
D11*
X138700000Y-113140000D03*
X138700000Y-110600000D03*
X140700000Y-110600000D03*
X140700000Y-113140000D03*
D12*
X143400000Y-117870000D03*
X143400000Y-105870000D03*
D13*
X116500000Y-109210000D03*
X116500000Y-106670000D03*
X116500000Y-104640000D03*
X116500000Y-102100000D03*
D14*
X113830000Y-112260000D03*
X113830000Y-98540000D03*
D11*
X138700000Y-97140000D03*
X138700000Y-94600000D03*
X140700000Y-94600000D03*
X140700000Y-97140000D03*
D12*
X143400000Y-101870000D03*
X143400000Y-89870000D03*
D15*
X123100000Y-112700000D03*
X123100000Y-107900000D03*
X123100000Y-98300000D03*
X123100000Y-103100000D03*
X127800000Y-103100000D03*
X127800000Y-98300000D03*
X127800000Y-107900000D03*
X127800000Y-112700000D03*
X132500000Y-112700000D03*
X132500000Y-107900000D03*
X132500000Y-98300000D03*
X132500000Y-103100000D03*
D16*
X116500000Y-102100000D02*
X120300000Y-102100000D01*
X125300000Y-100800000D02*
X127800000Y-98300000D01*
X121600000Y-100800000D02*
X125300000Y-100800000D01*
X120300000Y-102100000D02*
X121600000Y-100800000D01*
X140700000Y-97140000D02*
X140700000Y-97500000D01*
X140700000Y-97500000D02*
X137300000Y-100900000D01*
X125500000Y-104400000D02*
X123100000Y-106800000D01*
X125500000Y-101800000D02*
X125500000Y-104400000D01*
X126400000Y-100900000D02*
X125500000Y-101800000D01*
X137300000Y-100900000D02*
X126400000Y-100900000D01*
M02*
